<mxfile host="drawio-plugin" modified="2022-03-13T21:33:46.959Z" agent="5.0 (Macintosh; Intel Mac OS X 12_1_0) AppleWebKit/537.36 (KHTML, like Gecko) Chrome/89.0.4389.114 Safari/537.36" etag="PNKtWcUTwipkaFuRxeNS" version="15.5.4" type="embed"><diagram id="UtZuOsEcXonwn4NUky14" name="Page-1"><mxGraphModel dx="960" dy="1120" grid="1" gridSize="10" guides="1" tooltips="1" connect="1" arrows="1" fold="1" page="1" pageScale="1" pageWidth="827" pageHeight="1169" math="0" shadow="0"><root><mxCell id="0"/><mxCell id="1" parent="0"/><mxCell id="10" style="rounded=0;orthogonalLoop=1;jettySize=auto;html=1;exitX=1;exitY=0.3333333333333333;exitDx=0;exitDy=0;exitPerimeter=0;fontSize=12;fontColor=#FFFFFF;" parent="1" source="3" target="14" edge="1"><mxGeometry relative="1" as="geometry"><mxPoint x="1172.6286351375857" y="214.67092603707897" as="targetPoint"/></mxGeometry></mxCell><mxCell id="21" style="edgeStyle=none;rounded=0;orthogonalLoop=1;jettySize=auto;html=1;exitX=1;exitY=0.3333333333333333;exitDx=0;exitDy=0;exitPerimeter=0;fontSize=12;fontColor=#FFFFFF;" parent="1" source="3" target="17" edge="1"><mxGeometry relative="1" as="geometry"/></mxCell><mxCell id="24" style="edgeStyle=none;rounded=0;orthogonalLoop=1;jettySize=auto;html=1;exitX=1;exitY=0.3333333333333333;exitDx=0;exitDy=0;exitPerimeter=0;fontSize=12;fontColor=#FFFFFF;" parent="1" source="3" target="18" edge="1"><mxGeometry relative="1" as="geometry"/></mxCell><mxCell id="3" value="Klient" style="shape=umlActor;html=1;verticalLabelPosition=bottom;verticalAlign=top;align=center;fontSize=12;fontColor=#FFFFFF;" parent="1" vertex="1"><mxGeometry x="900" y="435" width="30" height="60" as="geometry"/></mxCell><mxCell id="11" style="edgeStyle=none;rounded=0;orthogonalLoop=1;jettySize=auto;html=1;exitX=0;exitY=0.3333333333333333;exitDx=0;exitDy=0;exitPerimeter=0;fontSize=12;fontColor=#FFFFFF;" parent="1" source="7" target="12" edge="1"><mxGeometry relative="1" as="geometry"><mxPoint x="1309.0645408026749" y="312.1125623485689" as="targetPoint"/></mxGeometry></mxCell><mxCell id="20" style="edgeStyle=none;rounded=0;orthogonalLoop=1;jettySize=auto;html=1;exitX=0;exitY=0.3333333333333333;exitDx=0;exitDy=0;exitPerimeter=0;fontSize=12;fontColor=#FFFFFF;" parent="1" source="7" target="14" edge="1"><mxGeometry relative="1" as="geometry"/></mxCell><mxCell id="22" style="edgeStyle=none;rounded=0;orthogonalLoop=1;jettySize=auto;html=1;exitX=0;exitY=0.3333333333333333;exitDx=0;exitDy=0;exitPerimeter=0;fontSize=12;fontColor=#FFFFFF;" parent="1" source="7" target="17" edge="1"><mxGeometry relative="1" as="geometry"/></mxCell><mxCell id="25" style="edgeStyle=none;rounded=0;orthogonalLoop=1;jettySize=auto;html=1;exitX=0;exitY=0.3333333333333333;exitDx=0;exitDy=0;exitPerimeter=0;fontSize=12;fontColor=#FFFFFF;" parent="1" source="7" target="13" edge="1"><mxGeometry relative="1" as="geometry"/></mxCell><mxCell id="7" value="Pracovník" style="shape=umlActor;html=1;verticalLabelPosition=bottom;verticalAlign=top;align=center;fontColor=#FFFFFF;" parent="1" vertex="1"><mxGeometry x="1510" y="435" width="30" height="60" as="geometry"/></mxCell><mxCell id="12" value="&lt;span style=&quot;text-align: left&quot;&gt;Přidat/odebrat práva disponetům&lt;/span&gt;" style="ellipse;whiteSpace=wrap;html=1;fontSize=12;fontColor=#FFFFFF;" parent="1" vertex="1"><mxGeometry x="1220" y="281.75" width="250" height="40" as="geometry"/></mxCell><mxCell id="13" value="&lt;span style=&quot;text-align: left&quot;&gt;Zřídit službu(internetové bankovnictví, platební kartu)&lt;/span&gt;" style="ellipse;whiteSpace=wrap;html=1;fontSize=12;fontColor=#FFFFFF;" parent="1" vertex="1"><mxGeometry x="1220" y="200" width="250" height="54.5" as="geometry"/></mxCell><mxCell id="14" value="&lt;span style=&quot;text-align: left&quot;&gt;Zřídit/editovat/zrušit účet&lt;/span&gt;" style="ellipse;whiteSpace=wrap;html=1;fontSize=12;fontColor=#FFFFFF;" parent="1" vertex="1"><mxGeometry x="1020" y="394.5" width="250" height="40" as="geometry"/></mxCell><mxCell id="15" value="&lt;span style=&quot;text-align: left&quot;&gt;Přidat/editovat/odebrat&amp;nbsp;uživatele&lt;/span&gt;" style="ellipse;whiteSpace=wrap;html=1;fontSize=12;fontColor=#FFFFFF;" parent="1" vertex="1"><mxGeometry x="1220" y="795" width="250" height="40" as="geometry"/></mxCell><mxCell id="16" value="&lt;span style=&quot;text-align: left&quot;&gt;Přídat/odebrat práva uživatelům&lt;/span&gt;" style="ellipse;whiteSpace=wrap;html=1;fontSize=12;fontColor=#FFFFFF;" parent="1" vertex="1"><mxGeometry x="1220" y="855" width="250" height="40" as="geometry"/></mxCell><mxCell id="17" value="Provést operaci(vklad, výběr, &lt;br&gt;převod peněz, platba)" style="ellipse;whiteSpace=wrap;html=1;fontSize=12;fontColor=#FFFFFF;" parent="1" vertex="1"><mxGeometry x="1020" y="474.5" width="250" height="40" as="geometry"/></mxCell><mxCell id="18" value="&lt;span style=&quot;text-align: left&quot;&gt;Zobrazit informace(o účtu, platebních kartách, operacích nad účtem)&lt;/span&gt;" style="ellipse;whiteSpace=wrap;html=1;fontSize=12;fontColor=#FFFFFF;" parent="1" vertex="1"><mxGeometry x="1020" y="534.5" width="250" height="80" as="geometry"/></mxCell><mxCell id="31" style="edgeStyle=none;rounded=0;orthogonalLoop=1;jettySize=auto;html=1;entryX=0.5;entryY=0.5;entryDx=0;entryDy=0;entryPerimeter=0;fontColor=#FFFFFF;" edge="1" parent="1" source="26" target="7"><mxGeometry relative="1" as="geometry"><mxPoint x="1530" y="530" as="targetPoint"/></mxGeometry></mxCell><mxCell id="40" style="edgeStyle=none;rounded=0;orthogonalLoop=1;jettySize=auto;html=1;exitX=0.5;exitY=0.5;exitDx=0;exitDy=0;exitPerimeter=0;entryX=0.5;entryY=0;entryDx=0;entryDy=0;entryPerimeter=0;fontColor=#FFFFFF;" edge="1" parent="1" source="26" target="33"><mxGeometry relative="1" as="geometry"/></mxCell><mxCell id="44" style="edgeStyle=none;rounded=0;orthogonalLoop=1;jettySize=auto;html=1;exitX=0;exitY=0.3333333333333333;exitDx=0;exitDy=0;exitPerimeter=0;fontColor=#FFFFFF;" edge="1" parent="1" source="26" target="43"><mxGeometry relative="1" as="geometry"/></mxCell><mxCell id="26" value="Vedoucí" style="shape=umlActor;html=1;verticalLabelPosition=bottom;verticalAlign=top;align=center;fontSize=12;fontColor=#FFFFFF;" parent="1" vertex="1"><mxGeometry x="1510" y="680" width="30" height="60" as="geometry"/></mxCell><mxCell id="41" style="edgeStyle=none;rounded=0;orthogonalLoop=1;jettySize=auto;html=1;exitX=0;exitY=0.3333333333333333;exitDx=0;exitDy=0;exitPerimeter=0;fontColor=#FFFFFF;" edge="1" parent="1" source="33" target="15"><mxGeometry relative="1" as="geometry"/></mxCell><mxCell id="42" style="edgeStyle=none;rounded=0;orthogonalLoop=1;jettySize=auto;html=1;exitX=0;exitY=0.3333333333333333;exitDx=0;exitDy=0;exitPerimeter=0;fontColor=#FFFFFF;" edge="1" parent="1" source="33" target="16"><mxGeometry relative="1" as="geometry"/></mxCell><mxCell id="33" value="SPRÁVCE" style="shape=umlActor;verticalLabelPosition=bottom;verticalAlign=top;fontColor=#FFFFFF;labelBackgroundColor=none;labelBorderColor=none;html=1;" vertex="1" parent="1"><mxGeometry x="1510" y="825" width="30" height="60" as="geometry"/></mxCell><mxCell id="43" value="&lt;span style=&quot;text-align: left&quot;&gt;Planování směň&lt;/span&gt;" style="ellipse;whiteSpace=wrap;html=1;fontSize=12;fontColor=#FFFFFF;" vertex="1" parent="1"><mxGeometry x="1220" y="680" width="250" height="40" as="geometry"/></mxCell></root></mxGraphModel></diagram></mxfile>